<?xml version="1.0" standalone="no"?>
<!DOCTYPE svg PUBLIC "-//W3C//DTD SVG 20010904//EN"
 "http://www.w3.org/TR/2001/REC-SVG-20010904/DTD/svg10.dtd">
<svg version="1.0" xmlns="http://www.w3.org/2000/svg"
 width="859.000000pt" height="859.000000pt" viewBox="0 0 859.000000 859.000000"
 preserveAspectRatio="xMidYMid meet">
<metadata>
Created by potrace 1.14, written by Peter Selinger 2001-2017
</metadata>
<g transform="translate(0.000000,859.000000) scale(0.100000,-0.100000)"
fill="#000000" stroke="none">
<path d="M4000 8459 c-86 -8 -237 -25 -300 -34 -346 -54 -538 -102 -845 -213
-477 -172 -1014 -496 -1359 -821 -39 -37 -92 -88 -118 -112 -195 -185 -473
-528 -613 -756 -235 -385 -376 -705 -499 -1138 -55 -194 -111 -512 -131 -756
-17 -205 -3 -686 25 -874 52 -342 93 -517 181 -785 27 -81 90 -253 109 -295
39 -87 217 -440 242 -480 137 -220 190 -300 238 -364 30 -40 64 -86 75 -100
38 -52 114 -140 250 -288 181 -198 481 -457 680 -587 167 -110 224 -146 230
-146 4 0 25 -13 48 -29 53 -36 491 -251 512 -251 4 0 21 -6 38 -14 68 -29 95
-39 192 -71 732 -244 1504 -284 2250 -119 184 41 372 95 475 137 14 5 32 11
40 12 37 6 255 102 432 190 224 111 409 222 604 363 262 188 572 485 778 742
42 52 89 111 104 130 32 40 226 332 266 400 23 40 214 424 236 475 124 288
234 687 281 1017 49 343 53 854 9 1143 -61 398 -131 674 -247 970 -144 368
-399 811 -641 1113 -84 103 -330 372 -342 372 -4 0 -28 19 -53 43 -25 23 -82
74 -128 112 -45 39 -90 78 -100 88 -11 9 -23 17 -29 17 -5 0 -13 6 -17 13 -4
7 -38 35 -75 62 -38 27 -68 52 -68 57 0 4 -6 8 -14 8 -8 0 -34 18 -57 40 -24
22 -46 40 -50 40 -4 0 -36 19 -71 43 -123 84 -407 236 -593 317 -204 90 -557
202 -768 245 -327 66 -519 86 -847 89 -129 1 -278 -1 -330 -5z"/>
</g>
</svg>
